<svg xmlns="http://www.w3.org/2000/svg" height="512" viewBox="0 0 64 64" width="512"><g><path d="m3 53h58a0 0 0 0 1 0 0v3a2 2 0 0 1 -2 2h-54a2 2 0 0 1 -2-2v-3a0 0 0 0 1 0 0z" fill="#787680"></path><path d="m61 53h-58l2-14h54z" fill="#4a80aa"></path><path d="m7 7h50a2 2 0 0 1 2 2v30a0 0 0 0 1 0 0h-54a0 0 0 0 1 0 0v-30a2 2 0 0 1 2-2z" fill="#c6c5ca"></path><path d="m9 11h46v28h-46z" fill="#2488ff"></path><path d="m51 47.5v7.5l-2 3v4h-10v-4l-3-2v-6.5a1.5 1.5 0 0 1 3 0v-5a1.5 1.5 0 0 1 3 0v-1a1.5 1.5 0 0 1 3 0v2a1.5 1.5 0 0 1 3 0v2a1.5 1.5 0 0 1 3 0z" fill="#ffddce"></path><path d="m28 49.5v6.5l-3 2v4h-10v-4l-2-3v-7.5a1.5 1.5 0 0 1 3 0v-2a1.5 1.5 0 0 1 3 0v-2a1.5 1.5 0 0 1 3 0v1a1.5 1.5 0 0 1 3 0v5a1.5 1.5 0 0 1 3 0z" fill="#ffddce"></path><path d="m47.47 7 3.5 4h-.97-6v-7.95z" fill="#f6c08e"></path><path d="m51 11.03v27.97h-38v-36h30.96l.04.05v7.95h6.97z" fill="#f7d4aa"></path><path d="m56 35h-3v-8h3a4 4 0 1 1 0 8z" fill="#e9e9ea"></path><path d="m26 35-6-4 6-4 2 2-2 2 2 2z" fill="#e9e9ea"></path><path d="m49 35h-23l2-2-2-2 2-2-2-2h23z" fill="#dd636e"></path><path d="m49 27h4v8h-4z" fill="#365e7d"></path><g fill="#1a6fb0"><path d="m17 16h30v2h-30z"></path><path d="m17 12h23v2h-23z"></path><path d="m17 8h23v2h-23z"></path><path d="m17 20h30v2h-30z"></path></g></g></svg>