<svg xmlns="http://www.w3.org/2000/svg" height="512" viewBox="0 0 512 512" width="512"><g id="Flat"><path d="m184 352h288a16 16 0 0 0 16-16v-296a16 16 0 0 0 -16-16h-89.373a16 16 0 0 0 -11.313 4.686l-22.628 22.628a16 16 0 0 1 -11.313 4.686h-153.373a16 16 0 0 0 -16 16v264a16 16 0 0 0 16 16z" fill="#348ed8"></path><path d="m136 96h320v224h-320z" fill="#85ccd5" transform="matrix(-1 0 0 -1 592 416)"></path><g fill="#78b9c1"><path d="m408 128h16v160h-16z"></path><path d="m368 128h16v160h-16z"></path><path d="m328 128h16v160h-16z"></path><path d="m288 128h16v160h-16z"></path><path d="m248 128h16v160h-16z"></path><path d="m208 128h16v160h-16z"></path><path d="m168 128h16v160h-16z"></path></g><path d="m144 352h328a11.816 11.816 0 0 1 -10.971-7.428l-70.994-177.485a24 24 0 0 0 -22.284-15.087h-280.118a16 16 0 0 0 -14.856 21.942z" fill="#459ce5"></path><path d="m448 48h16v16h-16z" fill="#2d7dbe"></path><path d="m416 48h16v16h-16z" fill="#2d7dbe"></path><path d="m384 48h16v16h-16z" fill="#2d7dbe"></path><rect fill="#d65246" height="160" rx="16" width="240" x="24" y="328"></rect><path d="m56 272v24h40v-24a48 48 0 0 1 48-48 48 48 0 0 1 48 48v56h40v-56a88 88 0 0 0 -88-88 88 88 0 0 0 -88 88z" fill="#dfdfdd"></path><path d="m160 400a16 16 0 1 0 -24 13.842v26.158h16v-26.158a15.98 15.98 0 0 0 8-13.842z" fill="#b93f33"></path></g></svg>