<svg xmlns="http://www.w3.org/2000/svg" id="Flat" height="512" viewBox="0 0 512 512" width="512"><path d="m484.98 384a96.045 96.045 0 0 0 -92.98-72h-64a96 96 0 0 0 -96 96v48h256v-48a96.353 96.353 0 0 0 -3.02-24z" fill="#3397e8"></path><path d="m440 400h-16a8 8 0 0 1 0-16h16a8 8 0 0 1 0 16z" fill="#2978b8"></path><rect fill="#e9eef2" height="160" rx="16" width="192" x="24" y="24"></rect><circle cx="120" cy="104" fill="#d0d2d4" r="16"></circle><path d="m24 184h208a0 0 0 0 1 0 0v32a0 0 0 0 1 0 0h-176a32 32 0 0 1 -32-32 0 0 0 0 1 0 0z" fill="#d0d2d4"></path><path d="m216 184h96a0 0 0 0 1 0 0 32 32 0 0 1 -32 32h-64a0 0 0 0 1 0 0v-32a0 0 0 0 1 0 0z" fill="#e9eef2"></path><path d="m336 280h48a0 0 0 0 1 0 0v48a16 16 0 0 1 -16 16h-16a16 16 0 0 1 -16-16v-48a0 0 0 0 1 0 0z" fill="#e0b999"></path><path d="m488 408v48a32 32 0 0 1 -32 32h-88l-40-32h-48v-32h54.31a32.008 32.008 0 0 1 17.75 5.37l39.94 26.63h32a16 16 0 0 0 16-16v-56h44.98a96.353 96.353 0 0 1 3.02 24z" fill="#f7cca9"></path><rect fill="#e9eef2" height="160" rx="16" width="192" x="104" y="296"></rect><circle cx="200" cy="376" fill="#d0d2d4" r="16"></circle><path d="m104 456h208a0 0 0 0 1 0 0v32a0 0 0 0 1 0 0h-176a32 32 0 0 1 -32-32 0 0 0 0 1 0 0z" fill="#d0d2d4"></path><path d="m296 456h96a0 0 0 0 1 0 0 32 32 0 0 1 -32 32h-64a0 0 0 0 1 0 0v-32a0 0 0 0 1 0 0z" fill="#e9eef2"></path><path d="m328 376h64v48h-64z" fill="#2978b8"></path><g fill="#3397e8"><circle cx="40" cy="248" r="8"></circle><circle cx="40" cy="280" r="8"></circle><circle cx="40" cy="312" r="8"></circle><circle cx="40" cy="344" r="8"></circle><circle cx="40" cy="376" r="8"></circle><circle cx="40" cy="408" r="8"></circle><circle cx="40" cy="440" r="8"></circle><circle cx="72" cy="440" r="8"></circle></g><path d="m336 104h48a64 64 0 0 1 64 64v48a0 0 0 0 1 0 0h-144a32 32 0 0 1 -32-32v-16a64 64 0 0 1 64-64z" fill="#4f5659"></path><path d="m336 296h48a32 32 0 0 0 32-32v-64a32 32 0 0 1 -32-32h-80v96a32 32 0 0 0 32 32z" fill="#f7cca9"></path><path d="m416 200h16a16 16 0 0 1 16 16v16a16 16 0 0 1 -16 16h-16a0 0 0 0 1 0 0v-48a0 0 0 0 1 0 0z" fill="#e0b999"></path><path d="m384 256h-48a8 8 0 0 1 0-16h48a8 8 0 0 1 0 16z" fill="#e0b999"></path><g fill="#4f5659"><circle cx="336" cy="216" r="8"></circle><circle cx="384" cy="216" r="8"></circle></g></svg>