<svg xmlns="http://www.w3.org/2000/svg" id="Layer_3" height="512" viewBox="0 0 64 64" width="512" data-name="Layer 3"><path d="m60 44v-3.852a6 6 0 0 0 -5.088-5.931l-7.912-1.217-4 2-4-2-7.912 1.217a6 6 0 0 0 -5.088 5.931v3.852z" fill="#d5883e"></path><path d="m56.28 39.714v-5.095a5.986 5.986 0 0 0 -1.368-.4l-7.912-1.219-4 2-4-2-7.912 1.217a6 6 0 0 0 -5.088 5.931v1.566h28.28a2 2 0 0 0 2-2z" fill="#f0ae42"></path><path d="m26 44h36v18h-36z" fill="#4d8c28"></path><path d="m30 59h8v-2h-7v-8h7v-2h-8a1 1 0 0 0 -1 1v10a1 1 0 0 0 1 1z" fill="#6bc13b"></path><path d="m17 48h3l6-4v4h5a2 2 0 0 1 2 2v2h-6a3.989 3.989 0 0 1 -1 2.643v7.357h-2l-4-2h-3z" fill="#fbe1ca"></path><path d="m47 28.93a7.971 7.971 0 0 1 -4 1.07 7.971 7.971 0 0 1 -4-1.07v4.07l4 2 4-2z" fill="#eabb9b"></path><path d="m50.983 17h1.017l1.375-5.5a7.645 7.645 0 0 0 -.389-4.865 7.645 7.645 0 0 0 -7.027-4.635h-2.9a2.641 2.641 0 0 0 -2.559 2 2.641 2.641 0 0 1 -2.562 2h-2.938a3 3 0 0 0 -3 3 16.937 16.937 0 0 0 1.789 7.578l.211.422h1v-3l3-4a13.658 13.658 0 0 0 9.657 4 3.344 3.344 0 0 1 3.326 3z" fill="#c18e59"></path><path d="m51 17.343v4.657a8 8 0 0 1 -8 8 8 8 0 0 1 -8-8v-8l3-4a13.658 13.658 0 0 0 9.657 4 3.343 3.343 0 0 1 3.343 3.343z" fill="#fbe1ca"></path><path d="m39 17h2v2h-2z" fill="#686868"></path><path d="m45 17h2v2h-2z" fill="#686868"></path><path d="m51 17h2a2 2 0 0 1 2 2 2 2 0 0 1 -2 2h-2" fill="#eabb9b"></path><path d="m35 17h-2a2 2 0 0 0 -2 2 2 2 0 0 0 2 2h2" fill="#eabb9b"></path><path d="m43 27a4.217 4.217 0 0 1 -3.789-2.342l-.106-.213 1.792-.89.1.21a2.226 2.226 0 0 0 2.003 1.235 2.224 2.224 0 0 0 2-1.236l.106-.212 1.788.9-.106.211a4.212 4.212 0 0 1 -3.788 2.337z" fill="#eabb9b"></path><path d="m11 46h6v16h-6z" fill="#3b5892"></path><path d="m11 46h4v13h-4z" fill="#4c6cb5"></path><g fill="#6bc13b"><path d="m48 51v-1a3 3 0 0 0 -3-3v-1h-2v1a3 3 0 0 0 -3 3v1a3 3 0 0 0 3 3v3a1 1 0 0 1 -1-1v-1h-2v1a3 3 0 0 0 3 3v1h2v-1a3 3 0 0 0 3-3v-1a3 3 0 0 0 -3-3v-3a1 1 0 0 1 1 1v1zm-2 4v1a1 1 0 0 1 -1 1v-3a1 1 0 0 1 1 1zm-3-3a1 1 0 0 1 -1-1v-1a1 1 0 0 1 1-1z"></path><path d="m58 59h-8v-2h7v-8h-7v-2h8a1 1 0 0 1 1 1v10a1 1 0 0 1 -1 1z"></path><path d="m50 52h2v2h-2z"></path><path d="m36 52h2v2h-2z"></path></g><path d="m11 60h-9v-12h9" fill="#5e87ca"></path><path d="m2 48h7v9h-7z" fill="#78a0d4"></path><path d="m26 17v-6h-2.459a10.01 10.01 0 0 0 -.678-1.621l1.744-1.743-4.243-4.243-1.743 1.744a10.01 10.01 0 0 0 -1.621-.678v-2.459h-6v2.459a10.01 10.01 0 0 0 -1.621.678l-1.743-1.744-4.243 4.243 1.744 1.743a10.01 10.01 0 0 0 -.678 1.621h-2.459v6h2.459a10.01 10.01 0 0 0 .678 1.621l-1.744 1.743 4.243 4.243 1.743-1.744a10.01 10.01 0 0 0 1.621.678v2.459h6v-2.459a10.01 10.01 0 0 0 1.621-.678l1.743 1.744 4.243-4.243-1.744-1.743a10.01 10.01 0 0 0 .678-1.621zm-12 3a6 6 0 1 1 6-6 6 6 0 0 1 -6 6z" fill="#686868"></path><path d="m8 35 6-6 6 6h-3v7h-6v-7z" fill="#b52f28"></path><path d="m33 40h2v4h-2z" fill="#f9d266"></path><path d="m51 40h2v4h-2z" fill="#f9d266"></path><path d="m11 35v4.357h3v-10.357l-6 6z" fill="#d23f34"></path></svg>