<svg xmlns="http://www.w3.org/2000/svg" height="512" viewBox="0 0 48 48" width="512"><g id="THR_money_in_envelope_" data-name="THR (money in envelope)"><path d="m47 23c0 22.87.08 21.34-.18 22a2.92 2.92 0 0 1 -1.53 1.71c-.85.41 2.51.29-41.29.29a3 3 0 0 1 -2.71-1.71c-.41-.9-.29.52-.29-22.29 1.34.88 13.69 8.94 23 15 16.57-10.78-.46.31 23-15z" fill="#fc6"></path><path d="m41.88 24c0 .1.44-.25-5.88 3.88 0-.15-.32.12 5.88-3.88z" fill="#ffde76"></path><path d="m47 23c0 22.87.08 21.34-.18 22h-35.82a8 8 0 0 1 -8-8v-12.69l21 13.69z" fill="#ffde76"></path><path d="m16.38 33-13.67 13.71a3.06 3.06 0 0 1 -1.42-1.42l13.37-13.37z" fill="#ffba55"></path><path d="m46.7 45.28a2.89 2.89 0 0 1 -1.41 1.43l-13.67-13.71 1.72-1.12z" fill="#ffba55"></path><path d="m35 1v29.83l-11 7.17-11-7.17v-29.83z" fill="#9dcc6b"></path><path d="m35 1v27.44c-3.48 2.28-1.16.76-11 7.17l-9-5.86v-28.75z" fill="#b5e08c"></path><g fill="#84b749"><path d="m30 13v-5.17a3 3 0 0 1 -1.83-1.83h-8.34a3 3 0 0 1 -1.83 1.83v5.17a1 1 0 0 1 -2 0v-6a1 1 0 0 1 1-1 1 1 0 0 0 1-1 1 1 0 0 1 1-1h10a1 1 0 0 1 1 1 1 1 0 0 0 1 1 1 1 0 0 1 1 1v6a1 1 0 0 1 -2 0z"></path><path d="m24 30a8 8 0 1 1 8-8 8 8 0 0 1 -8 8zm0-14a6 6 0 1 0 6 6 6 6 0 0 0 -6-6z"></path><path d="m24 11a1 1 0 1 1 .92-.62 1 1 0 0 1 -.92.62z"></path></g><path d="m46.2 7.11c-3 11.31-4.06 15.14-5.33 19.89l-5.87 3.83v-26.72z" fill="#9dcc6b"></path><path d="m46.2 7.11c-.42 1.55-3.2 11.81-4.57 17.05l-4.63 3v-22.51z" fill="#b5e08c"></path><path d="m41.75 12.13-1.55 5.79a1 1 0 0 1 -1.94-.52l1.34-5a3.07 3.07 0 0 1 -1.29-2.24l-3.31-.87v-2c.23 0 0 0 4.63 1.2a1 1 0 0 1 .71 1.23 1 1 0 0 0 .7 1.23 1 1 0 0 1 .71 1.18z" fill="#84b749"></path><path d="m47 23-6.13 4 1.82-6.81z" fill="#ffba55"></path><path d="m13 4.11v26.72l-5.87-3.83c-2.28-8.54-4.98-18.58-5.33-19.89z" fill="#9dcc6b"></path><path d="m13 4.11v24.42l-3.87-2.53c-4.13-15.5-1.13-4.14-5.21-19.46z" fill="#b5e08c"></path><path d="m8.4 12.41 1.34 5a1 1 0 0 1 -1.94.52l-1.55-5.8a1 1 0 0 1 .75-1.22 1 1 0 0 0 .7-1.23 1 1 0 0 1 .71-1.23c4.75-1.27 4.42-1.2 4.63-1.2v2l-3.31.88a3.07 3.07 0 0 1 -1.33 2.28z" fill="#84b749"></path><path d="m7.13 27-6.13-4 4.31-2.81c.82 3.04 1.16 4.33 1.82 6.81z" fill="#ffba55"></path><path d="m6.5 24.63-2.5-1.63 1.76-1.14z" fill="#fc6"></path><path d="m41.5 24.63 2.5-1.63-1.76-1.14z" fill="#fc6"></path></g></svg>